<svg xmlns="http://www.w3.org/2000/svg" width="82" height="82" fill="none" viewBox="0 0 82 82"><path fill="#29abe2" d="M33.312 74.313h15.375v5.124H33.312zm-2.562-7.688h20.5v5.125h-20.5zM59.165 10.04C54.349 5.218 47.898 2.563 41 2.563a25.564 25.564 0 0 0-25.625 25.625c0 7.466 2.862 14.45 7.848 19.16l.698.656c2.884 2.697 6.829 6.392 6.829 9.652v6.407h7.687V43.1l-7.091-4.022 2.927-4.209L41 38.438l6.613-3.586 3.059 4.112-7.11 4.165v20.934h7.688v-6.407c0-3.184 3.901-6.875 6.75-9.572l.787-.747c5.128-4.896 7.838-11.524 7.838-19.15a25.5 25.5 0 0 0-7.46-18.147"/></svg>